<?xml version="1.0" encoding="iso-8859-1"?>
<!-- Generator: Adobe Illustrator 19.0.0, SVG Export Plug-In . SVG Version: 6.00 Build 0)  -->
<svg version="1.1" id="Layer_1" xmlns="http://www.w3.org/2000/svg" xmlns:xlink="http://www.w3.org/1999/xlink" x="0px" y="0px"
	 viewBox="0 0 512.004 512.004" style="enable-background:new 0 0 512.004 512.004;" xml:space="preserve">
<polygon style="fill:#FFFFFF;" points="411.827,267.127 411.827,200.345 411.827,200.345 378.436,200.345 378.436,133.563 
	378.436,133.563 345.045,133.563 345.045,66.782 345.045,66.782 311.655,66.782 311.655,33.391 311.654,33.391 311.654,33.391 
	278.264,33.391 278.264,0 278.263,0 233.743,0 233.742,0 233.742,33.391 200.352,33.391 200.352,33.391 200.351,33.391 
	200.351,66.782 166.962,66.782 166.96,66.782 166.96,133.563 133.571,133.563 133.57,133.563 133.57,200.345 100.18,200.345 
	100.179,200.345 100.179,267.127 66.788,267.127 66.788,267.127 66.788,411.821 66.788,411.821 100.179,411.821 100.179,411.821 
	100.179,445.212 100.18,445.212 133.566,445.212 133.566,478.601 133.57,478.601 133.57,478.602 166.96,478.602 166.96,478.601 
	166.977,478.601 166.977,512 200.35,512 311.655,512 345.028,512 345.028,478.601 345.045,478.601 345.045,478.602 378.436,478.602 
	378.436,478.601 378.439,478.601 378.439,445.212 411.827,445.212 411.827,445.212 411.827,411.821 411.828,411.821 
	445.218,411.821 445.218,411.821 445.218,267.127 445.218,267.127 "/>
<rect x="100.175" y="200.345" style="fill:#006DF0;" width="33.391" height="66.782"/>
<path style="fill:#57A4FF;" d="M66.788,411.821h33.391l0,0l0,0v33.391h33.391h0.003h-0.003v33.391h33.391v-0.001h0.001V512h178.068
	v-33.399h33.411v-33.39h33.388v-33.391h33.392V267.127h-33.392v-66.782h-33.391v-66.782h-33.391h-0.017h0.017V66.782h-33.391V33.391
	h-33.391V0h-44.521v33.391h-33.391v33.391h-33.391v66.782h33.391V66.782h33.391v66.782h-33.391v66.782h-33.39v-66.782h-33.391
	v66.782h33.391v66.782h-33.39v44.521h-33.391v-44.521H66.791v144.694H66.788z M100.179,378.43v-33.391h33.391v33.391H100.179z"/>
<rect x="100.175" y="200.356" width="33.391" height="66.782"/>
<rect x="133.566" y="133.575" width="33.391" height="66.782"/>
<rect x="166.957" y="66.793" width="33.391" height="66.782"/>
<rect x="200.348" y="33.402" width="33.391" height="33.391"/>
<rect x="233.739" y="0.007" width="44.521" height="33.391"/>
<rect x="378.433" y="200.356" width="33.391" height="66.782"/>
<rect x="345.042" y="133.575" width="33.391" height="66.782"/>
<rect x="311.651" y="66.793" width="33.391" height="66.782"/>
<rect x="278.26" y="33.402" width="33.391" height="33.391"/>
<rect x="345.042" y="445.223" width="33.391" height="33.391"/>
<rect x="378.433" y="411.832" width="33.391" height="33.391"/>
<rect x="166.957" y="478.614" width="178.085" height="33.391"/>
<rect x="411.823" y="267.138" width="33.391" height="144.694"/>
<rect x="133.566" y="445.223" width="33.391" height="33.391"/>
<rect x="100.175" y="411.832" width="33.391" height="33.391"/>
<rect x="66.785" y="267.138" width="33.391" height="144.694"/>
<g>
</g>
<g>
</g>
<g>
</g>
<g>
</g>
<g>
</g>
<g>
</g>
<g>
</g>
<g>
</g>
<g>
</g>
<g>
</g>
<g>
</g>
<g>
</g>
<g>
</g>
<g>
</g>
<g>
</g>
</svg>
