<?xml version="1.0" encoding="iso-8859-1"?>
<!-- Generator: Adobe Illustrator 19.0.0, SVG Export Plug-In . SVG Version: 6.00 Build 0)  -->
<svg version="1.1" id="Layer_1" xmlns="http://www.w3.org/2000/svg" xmlns:xlink="http://www.w3.org/1999/xlink" x="0px" y="0px"
	 viewBox="0 0 512 512" style="enable-background:new 0 0 512 512;" xml:space="preserve">
<polygon style="fill:#57A4FF;" points="478.609,133.565 478.609,100.174 512,100.174 512,33.391 478.609,33.391 478.609,0 
	189.217,0 189.217,33.397 155.831,33.397 155.831,478.618 189.217,478.618 189.217,512 256,512 256,478.618 289.395,478.618 
	289.395,333.916 478.609,333.916 478.609,300.525 478.609,300.522 511.994,300.522 511.994,233.739 478.609,233.739 
	478.609,200.351 289.395,200.351 289.395,133.565 "/>
<polygon points="255.997,133.565 256,133.565 256,200.351 255.997,200.351 255.997,233.742 256,233.742 256,233.746 
	289.391,233.746 289.391,233.742 478.609,233.742 478.609,200.351 289.391,200.351 289.391,133.565 478.609,133.565 
	478.609,100.174 255.997,100.174 "/>
<rect x="189.217" width="289.391" height="33.391"/>
<rect x="189.217" y="478.609" width="66.783" height="33.391"/>
<rect x="155.826" y="33.391" width="33.391" height="445.217"/>
<rect x="478.609" y="33.391" width="33.391" height="66.783"/>
<rect x="478.609" y="233.739" width="33.391" height="66.783"/>
<polygon points="289.392,300.523 256.001,300.523 256.001,300.525 256,300.525 256,333.916 256.001,333.916 256.001,478.613 
	289.392,478.613 289.392,333.916 478.609,333.916 478.609,300.525 289.392,300.525 "/>
<rect y="33.391" width="33.391" height="55.652"/>
<rect x="33.391" width="55.652" height="33.391"/>
<rect x="33.391" y="89.043" width="55.652" height="33.391"/>
<rect x="89.043" y="33.391" width="33.391" height="55.652"/>
<g>
</g>
<g>
</g>
<g>
</g>
<g>
</g>
<g>
</g>
<g>
</g>
<g>
</g>
<g>
</g>
<g>
</g>
<g>
</g>
<g>
</g>
<g>
</g>
<g>
</g>
<g>
</g>
<g>
</g>
</svg>
