<?xml version="1.0" encoding="iso-8859-1"?>
<!-- Generator: Adobe Illustrator 19.0.0, SVG Export Plug-In . SVG Version: 6.00 Build 0)  -->
<svg version="1.1" id="Layer_1" xmlns="http://www.w3.org/2000/svg" xmlns:xlink="http://www.w3.org/1999/xlink" x="0px" y="0px"
	 viewBox="0 0 512 512" style="enable-background:new 0 0 512 512;" xml:space="preserve">
<g>
	<polygon style="fill:#E6E6E6;" points="478.609,189.214 478.609,155.823 445.217,155.823 445.21,155.823 445.217,122.713 
		389.557,122.713 389.557,66.783 356.166,66.783 356.166,33.391 322.783,33.391 322.783,0 189.217,0 189.217,33.391 155.826,33.391 
		155.826,66.783 122.435,66.783 122.435,122.435 66.775,122.435 66.775,155.823 33.391,155.823 33.391,189.214 33.384,189.214 
		33.384,189.214 0,189.214 0,222.605 0,222.609 0,278.261 33.391,278.261 33.391,311.652 66.783,311.652 66.783,345.043 
		356.174,345.043 445.21,345.043 445.217,345.043 445.217,311.652 478.609,311.652 478.609,278.261 512,278.261 512,222.605 
		512,189.214 	"/>
	<polygon style="fill:#E6E6E6;" points="133.565,411.826 100.174,411.826 100.174,378.435 100.174,378.435 33.391,378.435 
		33.391,378.435 33.391,411.826 0,411.826 0,411.826 0,478.609 0,478.609 33.391,478.609 33.391,512 33.391,512 100.174,512 
		100.174,512 100.174,478.609 133.565,478.609 133.565,478.609 	"/>
	<polygon style="fill:#E6E6E6;" points="322.783,411.826 289.391,411.826 289.391,378.435 289.391,378.435 222.609,378.435 
		222.609,378.435 222.609,411.826 189.217,411.826 189.217,411.826 189.217,478.609 189.217,478.609 222.609,478.609 222.609,512 
		222.609,512 289.391,512 289.391,512 289.391,478.609 322.783,478.609 322.783,478.609 	"/>
	<polygon style="fill:#E6E6E6;" points="512,411.826 478.609,411.826 478.609,378.435 478.609,378.435 411.826,378.435 
		411.826,378.435 411.826,411.826 378.435,411.826 378.435,411.826 378.435,478.609 378.435,478.609 411.826,478.609 411.826,512 
		411.826,512 478.609,512 478.609,512 478.609,478.609 512,478.609 512,478.609 	"/>
</g>
<rect x="155.826" y="33.391" width="33.391" height="33.391"/>
<rect x="33.391" y="155.826" width="33.391" height="33.391"/>
<rect x="33.391" y="278.261" width="33.391" height="33.391"/>
<rect x="189.217" width="133.565" height="33.391"/>
<polygon points="122.435,155.826 155.826,155.826 155.826,189.217 189.217,189.217 189.217,155.826 155.826,155.826 
	155.826,122.435 155.826,66.783 122.435,66.783 122.435,122.435 66.783,122.435 66.783,155.826 "/>
<rect y="189.217" width="33.391" height="89.043"/>
<polygon points="478.609,278.261 512,278.261 512,189.217 478.609,189.217 478.609,155.826 445.217,155.826 445.217,189.217 
	478.609,189.217 "/>
<rect x="66.783" y="311.652" width="378.435" height="33.391"/>
<polygon points="356.174,66.783 356.174,122.435 356.174,155.826 356.174,155.826 445.217,155.826 445.217,122.435 389.565,122.435 
	389.565,66.783 356.174,66.783 356.174,33.391 322.783,33.391 322.783,66.783 "/>
<rect x="322.783" y="155.826" width="33.391" height="33.391"/>
<rect x="445.217" y="278.261" width="33.391" height="33.391"/>
<rect y="411.826" width="33.391" height="66.783"/>
<rect x="33.391" y="378.435" width="66.783" height="33.391"/>
<polygon points="100.174,478.609 33.391,478.609 33.391,512 100.174,512 100.174,478.609 133.565,478.609 133.565,411.826 
	100.174,411.826 "/>
<rect x="189.217" y="411.826" width="33.391" height="66.783"/>
<rect x="222.609" y="378.435" width="66.783" height="33.391"/>
<polygon points="289.391,478.609 222.609,478.609 222.609,512 289.391,512 289.391,478.609 322.783,478.609 322.783,411.826 
	289.391,411.826 "/>
<rect x="378.435" y="411.826" width="33.391" height="66.783"/>
<rect x="411.826" y="378.435" width="66.783" height="33.391"/>
<polygon points="478.609,411.826 478.609,478.609 411.826,478.609 411.826,512 478.609,512 478.609,478.609 512,478.609 
	512,411.826 "/>
<g>
</g>
<g>
</g>
<g>
</g>
<g>
</g>
<g>
</g>
<g>
</g>
<g>
</g>
<g>
</g>
<g>
</g>
<g>
</g>
<g>
</g>
<g>
</g>
<g>
</g>
<g>
</g>
<g>
</g>
</svg>
