<?xml version="1.0" encoding="iso-8859-1"?>
<!-- Generator: Adobe Illustrator 19.0.0, SVG Export Plug-In . SVG Version: 6.00 Build 0)  -->
<svg version="1.1" id="Layer_1" xmlns="http://www.w3.org/2000/svg" xmlns:xlink="http://www.w3.org/1999/xlink" x="0px" y="0px"
	 viewBox="0 0 512 512" style="enable-background:new 0 0 512 512;" xml:space="preserve">
<path style="fill:#006DF0;" d="M0,0v256h411.826v-33.391h33.391V256h-33.391v33.391H0v33.391h445.217v33.391H0v66.783h289.391
	v33.391H0V512h512V0H0z M411.826,100.174V66.783H311.652v33.391h-33.391v89.043h66.783v33.391h-66.783v-33.391H244.87v-89.043
	h33.391V66.783h33.391V33.391h100.174v33.391h33.391v33.391H411.826z M378.435,445.217h-33.391v-55.652h33.391V445.217z
	 M478.609,445.217h-33.391v33.391h-66.783v-33.391h66.783v-89.043h33.391V445.217z M478.609,222.609h-33.391V100.174h33.391V222.609
	z"/>
<g>
	<rect x="345.043" y="389.565" style="fill:#FFFFFF;" width="33.391" height="55.652"/>
	<rect x="378.435" y="445.217" style="fill:#FFFFFF;" width="66.783" height="33.391"/>
	<rect x="445.217" y="356.174" style="fill:#FFFFFF;" width="33.391" height="89.043"/>
	<rect y="322.783" style="fill:#FFFFFF;" width="445.217" height="33.391"/>
	<rect y="422.957" style="fill:#FFFFFF;" width="322.783" height="33.391"/>
	<rect x="411.826" y="66.783" style="fill:#FFFFFF;" width="33.391" height="33.391"/>
	<rect x="278.261" y="66.783" style="fill:#FFFFFF;" width="33.391" height="33.391"/>
	<rect x="278.261" y="189.217" style="fill:#FFFFFF;" width="66.783" height="33.391"/>
	<rect x="411.826" y="222.609" style="fill:#FFFFFF;" width="33.391" height="33.391"/>
	<rect x="244.87" y="100.174" style="fill:#FFFFFF;" width="33.391" height="89.043"/>
	<rect x="311.652" y="33.391" style="fill:#FFFFFF;" width="100.174" height="33.391"/>
	<rect x="445.217" y="100.174" style="fill:#FFFFFF;" width="33.391" height="122.435"/>
	<rect y="256" style="fill:#FFFFFF;" width="411.826" height="33.391"/>
</g>
<g>
</g>
<g>
</g>
<g>
</g>
<g>
</g>
<g>
</g>
<g>
</g>
<g>
</g>
<g>
</g>
<g>
</g>
<g>
</g>
<g>
</g>
<g>
</g>
<g>
</g>
<g>
</g>
<g>
</g>
</svg>
