<?xml version="1.0" encoding="iso-8859-1"?>
<!-- Generator: Adobe Illustrator 19.0.0, SVG Export Plug-In . SVG Version: 6.00 Build 0)  -->
<svg version="1.1" id="Layer_1" xmlns="http://www.w3.org/2000/svg" xmlns:xlink="http://www.w3.org/1999/xlink" x="0px" y="0px"
	 viewBox="0 0 512 512" style="enable-background:new 0 0 512 512;" xml:space="preserve">
<polygon style="fill:#57A4FF;" points="289.392,200.348 289.392,166.953 478.609,166.953 478.609,166.953 478.609,133.562 
	512,133.562 512,66.779 478.609,66.779 478.609,33.388 211.478,33.388 211.478,66.779 178.087,66.779 178.087,66.779 
	178.087,100.171 144.696,100.171 144.696,133.564 111.309,133.564 111.309,411.828 144.696,411.828 144.696,445.217 
	178.087,445.217 178.087,478.609 211.478,478.609 211.478,512 478.609,512 478.609,478.609 478.609,478.609 478.609,478.606 
	511.997,478.606 511.997,411.824 478.609,411.824 478.609,378.435 289.391,378.435 289.391,345.043 256.004,345.043 
	256.004,200.348 "/>
<rect x="289.391" y="133.565" width="189.217" height="33.391"/>
<rect x="289.391" y="378.435" width="189.217" height="33.391"/>
<rect x="144.696" y="100.171" width="33.391" height="33.391"/>
<rect x="144.696" y="411.826" width="33.391" height="33.391"/>
<polygon points="211.478,445.217 178.087,445.217 178.087,478.609 211.478,478.609 211.478,512 478.609,512 478.609,478.609 
	211.478,478.609 "/>
<polygon points="211.478,33.388 211.478,66.779 178.087,66.779 178.087,100.171 211.478,100.171 211.478,66.779 478.609,66.779 
	478.609,33.388 "/>
<rect x="111.304" y="133.565" width="33.391" height="278.261"/>
<rect x="478.609" y="66.779" width="33.391" height="66.783"/>
<rect x="478.609" y="411.826" width="33.391" height="66.783"/>
<polygon points="256,345.043 256,200.348 222.609,200.348 222.609,345.047 255.997,345.047 255.997,378.435 289.388,378.435 
	289.388,345.043 "/>
<rect x="256" y="166.957" width="33.391" height="33.391"/>
<rect y="33.391" width="33.391" height="55.652"/>
<rect x="33.391" width="55.652" height="33.391"/>
<rect x="33.391" y="89.043" width="55.652" height="33.391"/>
<rect x="89.043" y="33.391" width="33.391" height="55.652"/>
<g>
</g>
<g>
</g>
<g>
</g>
<g>
</g>
<g>
</g>
<g>
</g>
<g>
</g>
<g>
</g>
<g>
</g>
<g>
</g>
<g>
</g>
<g>
</g>
<g>
</g>
<g>
</g>
<g>
</g>
</svg>
