<?xml version="1.0" encoding="iso-8859-1"?>
<!-- Generator: Adobe Illustrator 19.0.0, SVG Export Plug-In . SVG Version: 6.00 Build 0)  -->
<svg version="1.1" id="Layer_1" xmlns="http://www.w3.org/2000/svg" xmlns:xlink="http://www.w3.org/1999/xlink" x="0px" y="0px"
	 viewBox="0 0 512 512" style="enable-background:new 0 0 512 512;" xml:space="preserve">
<polyline style="fill:#9BFBFF;" points="311.652,478.609 311.652,411.826 345.043,411.826 345.043,445.217 411.826,445.217 
	411.826,411.826 445.217,411.826 445.217,345.043 411.826,345.043 411.826,311.652 478.609,311.652 478.609,278.261 478.609,278.26 
	478.609,278.261 512,278.261 512,233.739 478.609,233.739 478.609,200.348 411.826,200.348 411.826,166.957 445.217,166.957 
	445.217,100.174 411.826,100.174 411.826,66.783 345.043,66.783 345.043,100.174 311.652,100.174 311.652,33.391 278.261,33.391 
	278.259,33.391 278.261,33.391 278.261,0 233.739,0 233.739,33.391 233.737,33.391 200.348,33.391 200.348,100.174 166.957,100.174 
	166.957,66.783 100.174,66.783 100.174,100.174 66.783,100.174 66.783,166.957 100.174,166.957 100.174,200.348 33.391,200.348 
	33.391,233.739 0,233.739 0,278.261 33.391,278.261 33.391,278.26 33.391,278.261 33.391,311.652 100.174,311.652 100.174,345.043 
	66.783,345.043 66.783,411.826 100.174,411.826 100.174,445.217 166.957,445.217 166.957,411.826 200.348,411.826 200.348,478.609 
	233.737,478.609 233.739,478.609 233.739,512 278.261,512 278.261,478.609 278.259,478.609 "/>
<rect x="233.739" width="44.522" height="33.391"/>
<rect x="100.174" y="66.783" width="66.783" height="33.391"/>
<rect x="66.783" y="100.174" width="33.391" height="66.783"/>
<polygon points="166.957,200.348 133.565,200.348 133.565,166.957 100.174,166.957 100.174,200.348 33.391,200.348 33.391,233.739 
	166.957,233.739 "/>
<polygon points="200.348,133.565 200.348,166.957 233.739,166.957 233.739,133.565 233.739,100.174 233.739,33.391 200.348,33.391 
	200.348,100.174 166.957,100.174 166.957,133.565 "/>
<rect x="345.043" y="66.783" width="66.783" height="33.391"/>
<rect x="411.826" y="100.174" width="33.391" height="66.783"/>
<polygon points="378.435,200.348 345.043,200.348 345.043,233.739 478.609,233.739 478.609,200.348 411.826,200.348 
	411.826,166.957 378.435,166.957 "/>
<polygon points="278.261,133.565 278.261,166.957 311.652,166.957 311.652,133.565 345.043,133.565 345.043,100.174 
	311.652,100.174 311.652,33.391 278.261,33.391 278.261,100.174 "/>
<rect x="233.739" y="478.609" width="44.522" height="33.391"/>
<rect x="100.174" y="411.826" width="66.783" height="33.391"/>
<rect x="66.783" y="345.043" width="33.391" height="66.783"/>
<polygon points="133.565,311.652 166.957,311.652 166.957,278.261 33.391,278.261 33.391,311.652 100.174,311.652 100.174,345.043 
	133.565,345.043 "/>
<polygon points="233.739,378.435 233.739,345.043 200.348,345.043 200.348,378.435 166.957,378.435 166.957,411.826 
	200.348,411.826 200.348,478.609 233.739,478.609 233.739,411.826 "/>
<rect x="345.043" y="411.826" width="66.783" height="33.391"/>
<rect x="411.826" y="345.043" width="33.391" height="66.783"/>
<polygon points="345.043,311.652 378.435,311.652 378.435,345.043 411.826,345.043 411.826,311.652 478.609,311.652 
	478.609,278.261 345.043,278.261 "/>
<polygon points="311.652,378.435 311.652,345.043 278.261,345.043 278.261,378.435 278.261,411.826 278.261,478.609 
	311.652,478.609 311.652,411.826 345.043,411.826 345.043,378.435 "/>
<rect y="233.739" width="33.391" height="44.522"/>
<rect x="478.609" y="233.739" width="33.391" height="44.522"/>
<g>
</g>
<g>
</g>
<g>
</g>
<g>
</g>
<g>
</g>
<g>
</g>
<g>
</g>
<g>
</g>
<g>
</g>
<g>
</g>
<g>
</g>
<g>
</g>
<g>
</g>
<g>
</g>
<g>
</g>
</svg>
