<?xml version="1.0" encoding="iso-8859-1"?>
<!-- Generator: Adobe Illustrator 19.0.0, SVG Export Plug-In . SVG Version: 6.00 Build 0)  -->
<svg version="1.1" id="Layer_1" xmlns="http://www.w3.org/2000/svg" xmlns:xlink="http://www.w3.org/1999/xlink" x="0px" y="0px"
	 viewBox="0 0 512 512" style="enable-background:new 0 0 512 512;" xml:space="preserve">
<polygon style="fill:#FFFFFF;" points="428.522,411.826 428.522,411.826 395.13,411.826 395.13,378.435 361.748,378.435 
	361.748,367.304 361.745,367.304 361.745,333.91 328.353,333.91 328.353,300.518 128.006,300.518 128.006,333.91 128.006,333.91 
	94.614,333.91 94.619,367.304 94.619,378.435 94.614,378.435 94.609,378.435 61.217,378.435 61.217,411.826 27.826,411.826 
	27.826,478.609 61.223,478.609 61.223,512 395.136,512 395.136,478.609 395.136,478.609 395.136,478.609 428.527,478.609 
	428.527,411.826 "/>
<polygon style="fill:#FFDA44;" points="384,133.565 350.609,133.565 350.609,100.174 217.043,100.174 217.043,133.565 
	183.652,133.565 183.652,267.13 217.043,267.13 217.043,300.522 350.609,300.522 350.609,267.13 384,267.13 "/>
<rect x="384" y="66.783" width="33.391" height="33.391"/>
<rect x="417.391" y="33.391" width="33.391" height="33.391"/>
<rect x="150.261" y="66.783" width="33.391" height="33.391"/>
<rect x="116.87" y="33.391" width="33.391" height="33.391"/>
<polygon points="183.652,267.13 161.391,267.13 161.391,300.522 217.043,300.522 294.957,300.522 294.957,333.913 328.348,333.913 
	328.348,378.435 328.348,411.826 328.348,411.826 395.13,411.826 395.13,378.435 361.739,378.435 361.739,333.913 328.348,333.913 
	328.348,300.522 350.609,300.522 350.609,267.13 384,267.13 384,133.565 350.609,133.565 350.609,267.13 294.957,267.13 
	217.043,267.13 217.043,133.565 183.652,133.565 "/>
<rect x="217.043" y="100.174" width="133.565" height="33.391"/>
<rect x="261.565" width="33.391" height="66.783"/>
<rect x="417.391" y="166.957" width="66.783" height="33.391"/>
<rect x="83.478" y="166.957" width="66.783" height="33.391"/>
<rect x="395.13" y="411.826" width="33.391" height="66.783"/>
<polygon points="61.217,411.826 27.826,411.826 27.826,478.609 61.217,478.609 61.217,512 395.13,512 395.13,478.609 
	61.217,478.609 "/>
<rect x="128" y="300.522" width="33.391" height="33.391"/>
<polygon points="94.609,411.826 128,411.826 128,445.217 161.391,445.217 161.391,411.826 128,411.826 128,378.435 128,333.913 
	94.609,333.913 94.609,378.435 61.217,378.435 61.217,411.826 "/>
<rect x="294.957" y="411.826" width="33.391" height="33.391"/>
<g>
</g>
<g>
</g>
<g>
</g>
<g>
</g>
<g>
</g>
<g>
</g>
<g>
</g>
<g>
</g>
<g>
</g>
<g>
</g>
<g>
</g>
<g>
</g>
<g>
</g>
<g>
</g>
<g>
</g>
</svg>
