<?xml version="1.0" encoding="iso-8859-1"?>
<!-- Generator: Adobe Illustrator 19.0.0, SVG Export Plug-In . SVG Version: 6.00 Build 0)  -->
<svg version="1.1" id="Layer_1" xmlns="http://www.w3.org/2000/svg" xmlns:xlink="http://www.w3.org/1999/xlink" x="0px" y="0px"
	 viewBox="0 0 512 512" style="enable-background:new 0 0 512 512;" xml:space="preserve">
<g>
	<polygon style="fill:#FFDA44;" points="512,211.478 512,178.087 434.087,178.087 434.087,178.087 400.696,178.087 400.696,178.087 
		400.696,178.087 400.696,144.696 400.696,144.696 400.696,111.304 333.913,111.304 333.913,89.043 333.913,89.043 333.913,0 
		300.522,0 300.522,77.913 211.478,77.913 211.478,0 178.087,0 178.087,77.913 178.087,77.913 178.087,111.304 144.696,111.304 
		144.696,111.304 111.304,111.304 111.304,144.696 111.304,144.696 111.304,178.087 89.043,178.087 89.043,178.087 0,178.087 
		0,211.478 77.919,211.478 77.919,300.522 0,300.522 0,333.913 77.919,333.913 77.919,333.913 111.304,333.913 111.304,367.304 
		111.304,367.304 111.304,400.696 144.696,400.696 144.696,400.696 178.087,400.696 178.087,434.087 178.087,434.087 
		178.087,434.087 178.087,512 211.478,512 211.478,434.087 300.522,434.087 300.522,512 333.913,512 333.913,422.957 
		333.913,422.957 333.913,400.696 367.304,400.696 367.304,400.696 400.696,400.696 400.696,367.304 400.696,367.304 
		400.696,333.913 434.091,333.913 434.091,333.913 512,333.913 512,300.522 434.091,300.522 434.091,211.478 	"/>
	<rect x="400.696" y="77.913" style="fill:#FFDA44;" width="33.391" height="33.391"/>
	<rect x="434.087" y="44.522" style="fill:#FFDA44;" width="33.391" height="33.391"/>
	<rect x="77.913" y="77.913" style="fill:#FFDA44;" width="33.391" height="33.391"/>
	<rect x="44.522" y="44.522" style="fill:#FFDA44;" width="33.391" height="33.391"/>
	<rect x="77.913" y="400.696" style="fill:#FFDA44;" width="33.391" height="33.391"/>
	<rect x="44.522" y="434.087" style="fill:#FFDA44;" width="33.391" height="33.391"/>
	<rect x="400.696" y="400.696" style="fill:#FFDA44;" width="33.391" height="33.391"/>
	<rect x="434.087" y="434.087" style="fill:#FFDA44;" width="33.391" height="33.391"/>
</g>
<polygon points="512,211.478 512,178.087 434.087,178.087 400.696,178.087 400.696,333.913 422.957,333.913 434.087,333.913 
	512,333.913 512,300.522 434.087,300.522 434.087,211.478 "/>
<rect x="400.696" y="77.913" width="33.391" height="33.391"/>
<rect x="434.087" y="44.522" width="33.391" height="33.391"/>
<rect x="77.913" y="77.913" width="33.391" height="33.391"/>
<rect x="44.522" y="44.522" width="33.391" height="33.391"/>
<rect x="77.913" y="400.696" width="33.391" height="33.391"/>
<rect x="44.522" y="434.087" width="33.391" height="33.391"/>
<rect x="400.696" y="400.696" width="33.391" height="33.391"/>
<rect x="434.087" y="434.087" width="33.391" height="33.391"/>
<polygon points="144.696,367.304 144.696,367.304 144.696,333.913 111.304,333.913 111.304,178.087 144.696,178.087 
	144.696,144.696 144.696,144.696 178.087,144.696 178.087,111.304 144.696,111.304 111.304,111.304 111.304,144.696 
	111.304,144.696 111.304,178.087 77.913,178.087 0,178.087 0,211.478 77.913,211.478 77.913,300.522 0,300.522 0,333.913 
	77.913,333.913 89.043,333.913 111.304,333.913 111.304,367.304 111.304,367.304 111.304,400.696 144.696,400.696 144.696,400.696 
	178.087,400.696 178.087,367.304 "/>
<polygon points="333.913,89.043 333.913,89.043 333.913,0 300.522,0 300.522,77.913 211.478,77.913 211.478,0 178.087,0 
	178.087,77.913 178.087,77.913 178.087,111.304 333.913,111.304 "/>
<polygon points="178.087,434.087 178.087,434.087 178.087,512 211.478,512 211.478,434.087 300.522,434.087 300.522,512 
	333.913,512 333.913,422.957 333.913,422.957 333.913,400.696 178.087,400.696 "/>
<polygon points="333.913,144.696 367.304,144.696 367.304,178.087 400.696,178.087 400.696,144.696 400.696,144.696 
	400.696,111.304 367.304,111.304 367.304,111.304 333.913,111.304 333.913,111.304 "/>
<polygon points="400.696,367.304 400.696,333.913 367.304,333.913 367.304,367.304 333.913,367.304 333.913,367.304 
	333.913,400.696 333.913,400.696 367.304,400.696 367.304,400.696 400.696,400.696 "/>
<g>
</g>
<g>
</g>
<g>
</g>
<g>
</g>
<g>
</g>
<g>
</g>
<g>
</g>
<g>
</g>
<g>
</g>
<g>
</g>
<g>
</g>
<g>
</g>
<g>
</g>
<g>
</g>
<g>
</g>
</svg>
