<?xml version="1.0" encoding="iso-8859-1"?>
<!-- Generator: Adobe Illustrator 19.0.0, SVG Export Plug-In . SVG Version: 6.00 Build 0)  -->
<svg version="1.1" id="Layer_1" xmlns="http://www.w3.org/2000/svg" xmlns:xlink="http://www.w3.org/1999/xlink" x="0px" y="0px"
	 viewBox="0 0 512 512" style="enable-background:new 0 0 512 512;" xml:space="preserve">
<polygon style="fill:#FF3501;" points="365.714,231.619 365.714,195.048 402.286,195.048 402.286,158.476 438.857,158.476 
	438.857,121.905 475.429,121.905 475.429,85.333 512,85.333 512,36.571 475.429,36.571 475.429,0 426.667,0 426.667,36.571 
	390.095,36.571 390.095,73.143 353.524,73.143 353.524,109.714 316.952,109.714 316.952,146.286 280.381,146.286 280.381,182.857 
	231.619,182.857 231.619,146.286 195.048,146.286 195.048,109.714 158.476,109.714 158.476,73.143 121.905,73.143 121.905,36.571 
	85.333,36.571 85.333,0 36.571,0 36.571,36.571 0,36.571 0,85.333 36.571,85.333 36.571,121.905 73.143,121.905 73.143,158.476 
	109.714,158.476 109.714,195.048 146.286,195.048 146.286,231.619 182.857,231.619 182.857,280.381 146.286,280.381 
	146.286,316.952 109.714,316.952 109.714,353.524 73.143,353.524 73.143,390.095 36.571,390.095 36.571,426.667 0,426.667 
	0,475.429 36.571,475.429 36.571,512 85.333,512 85.333,475.429 121.905,475.429 121.905,438.857 158.476,438.857 158.476,402.286 
	195.048,402.286 195.048,365.714 231.619,365.714 231.619,329.143 280.381,329.143 280.381,365.714 316.952,365.714 
	316.952,402.286 353.524,402.286 353.524,438.857 390.095,438.857 390.095,475.429 426.667,475.429 426.667,512 475.429,512 
	475.429,475.429 512,475.429 512,426.667 475.429,426.667 475.429,390.095 438.857,390.095 438.857,353.524 402.286,353.524 
	402.286,316.952 365.714,316.952 365.714,280.381 329.143,280.381 329.143,231.619 "/>
<rect x="231.619" y="182.857" width="48.762" height="36.571"/>
<rect x="231.619" y="292.571" width="48.762" height="36.571"/>
<rect x="292.571" y="231.619" width="36.571" height="48.762"/>
<rect x="365.714" y="158.476" width="36.571" height="36.571"/>
<rect x="280.381" y="146.286" width="36.571" height="36.571"/>
<rect x="329.143" y="195.048" width="36.571" height="36.571"/>
<rect x="316.952" y="109.714" width="36.571" height="36.571"/>
<rect x="402.286" y="121.905" width="36.571" height="36.571"/>
<rect x="353.524" y="73.143" width="36.571" height="36.571"/>
<rect x="438.857" y="85.333" width="36.571" height="36.571"/>
<rect x="390.095" y="36.571" width="36.571" height="36.571"/>
<rect x="426.667" width="48.762" height="36.571"/>
<rect x="475.429" y="36.571" width="36.571" height="48.762"/>
<rect x="365.714" y="316.952" width="36.571" height="36.571"/>
<rect x="329.143" y="280.381" width="36.571" height="36.571"/>
<rect x="316.952" y="365.714" width="36.571" height="36.571"/>
<rect x="402.286" y="353.524" width="36.571" height="36.571"/>
<rect x="353.524" y="402.286" width="36.571" height="36.571"/>
<rect x="438.857" y="390.095" width="36.571" height="36.571"/>
<rect x="390.095" y="438.857" width="36.571" height="36.571"/>
<rect x="426.667" y="475.429" width="48.762" height="36.571"/>
<rect y="426.667" width="36.571" height="48.762"/>
<rect x="36.571" y="475.429" width="48.762" height="36.571"/>
<rect x="182.857" y="231.619" width="36.571" height="48.762"/>
<rect x="146.286" y="280.381" width="36.571" height="36.571"/>
<rect x="109.714" y="316.952" width="36.571" height="36.571"/>
<rect x="73.143" y="353.524" width="36.571" height="36.571"/>
<rect x="36.571" y="390.095" width="36.571" height="36.571"/>
<rect x="85.333" y="438.857" width="36.571" height="36.571"/>
<rect x="121.905" y="402.286" width="36.571" height="36.571"/>
<rect x="158.476" y="365.714" width="36.571" height="36.571"/>
<rect x="195.048" y="329.143" width="36.571" height="36.571"/>
<rect x="195.048" y="146.286" width="36.571" height="36.571"/>
<rect x="146.286" y="195.048" width="36.571" height="36.571"/>
<rect x="158.476" y="109.714" width="36.571" height="36.571"/>
<rect x="121.905" y="73.143" width="36.571" height="36.571"/>
<rect x="85.333" y="36.571" width="36.571" height="36.571"/>
<rect x="109.714" y="158.476" width="36.571" height="36.571"/>
<rect x="73.143" y="121.905" width="36.571" height="36.571"/>
<rect x="36.571" y="85.333" width="36.571" height="36.571"/>
<rect x="280.381" y="329.143" width="36.571" height="36.571"/>
<rect x="475.429" y="426.667" width="36.571" height="48.762"/>
<rect x="36.571" width="48.762" height="36.571"/>
<rect y="36.571" width="36.571" height="48.762"/>
<g>
</g>
<g>
</g>
<g>
</g>
<g>
</g>
<g>
</g>
<g>
</g>
<g>
</g>
<g>
</g>
<g>
</g>
<g>
</g>
<g>
</g>
<g>
</g>
<g>
</g>
<g>
</g>
<g>
</g>
</svg>
