<?xml version="1.0" encoding="iso-8859-1"?>
<!-- Generator: Adobe Illustrator 19.0.0, SVG Export Plug-In . SVG Version: 6.00 Build 0)  -->
<svg version="1.1" id="Layer_1" xmlns="http://www.w3.org/2000/svg" xmlns:xlink="http://www.w3.org/1999/xlink" x="0px" y="0px"
	 viewBox="0 0 512 512" style="enable-background:new 0 0 512 512;" xml:space="preserve">
<polygon style="fill:#E6E6E6;" points="478.609,267.13 478.609,233.739 445.217,233.739 445.21,200.348 389.565,200.348 
	389.557,122.435 356.166,122.435 356.166,89.043 322.783,89.043 322.783,55.652 189.217,55.652 189.217,89.043 155.826,89.043 
	155.826,122.435 122.435,122.435 122.435,200.348 66.775,200.348 66.775,233.739 33.391,233.739 33.391,267.13 33.384,267.13 
	33.384,267.13 0,267.13 0,300.522 0,300.525 0,389.565 33.391,389.565 33.391,422.957 66.783,422.957 66.783,456.348 
	356.174,456.348 445.21,456.348 445.217,456.348 445.217,422.957 478.609,422.957 478.609,389.565 512,389.565 512,300.522 
	512,267.13 "/>
<rect x="155.826" y="89.043" width="33.391" height="33.391"/>
<rect x="322.783" y="233.739" width="33.391" height="33.391"/>
<rect x="33.391" y="389.565" width="33.391" height="33.391"/>
<rect x="189.217" y="55.652" width="133.565" height="33.391"/>
<polygon points="122.435,233.739 155.826,233.739 155.826,267.13 189.217,267.13 189.217,233.739 155.826,233.739 155.826,200.348 
	155.826,122.435 122.435,122.435 122.435,200.348 66.783,200.348 66.783,233.739 "/>
<polygon points="33.391,267.13 66.783,267.13 66.783,233.739 33.391,233.739 33.391,267.13 0,267.13 0,389.565 33.391,389.565 "/>
<polygon points="389.565,200.348 389.565,122.435 356.174,122.435 356.174,89.043 322.783,89.043 322.783,122.435 356.174,122.435 
	356.174,200.348 356.174,233.739 356.174,233.739 445.217,233.739 445.217,200.348 "/>
<rect x="445.217" y="389.565" width="33.391" height="33.391"/>
<rect x="445.217" y="233.739" width="33.391" height="33.391"/>
<rect x="478.609" y="267.13" width="33.391" height="122.435"/>
<rect x="66.783" y="422.957" width="378.435" height="33.391"/>
<g>
</g>
<g>
</g>
<g>
</g>
<g>
</g>
<g>
</g>
<g>
</g>
<g>
</g>
<g>
</g>
<g>
</g>
<g>
</g>
<g>
</g>
<g>
</g>
<g>
</g>
<g>
</g>
<g>
</g>
</svg>
