<?xml version="1.0" encoding="iso-8859-1"?>
<!-- Generator: Adobe Illustrator 19.0.0, SVG Export Plug-In . SVG Version: 6.00 Build 0)  -->
<svg version="1.1" id="Layer_1" xmlns="http://www.w3.org/2000/svg" xmlns:xlink="http://www.w3.org/1999/xlink" x="0px" y="0px"
	 viewBox="0 0 512 512" style="enable-background:new 0 0 512 512;" xml:space="preserve">
<polygon style="fill:#FFFFFF;" points="478.609,133.565 478.609,100.174 478.603,100.174 478.603,100.174 445.212,100.174 
	445.212,66.783 411.829,66.783 411.829,55.652 411.826,55.652 411.826,33.391 378.435,33.391 378.435,0 222.609,0 222.609,33.391 
	222.609,33.391 189.217,33.391 189.222,55.652 189.222,66.783 189.217,66.783 189.212,66.783 155.821,66.783 155.821,100.174 
	122.429,100.174 122.429,133.565 89.043,133.565 89.043,200.348 122.435,200.348 122.435,233.739 322.783,233.739 356.174,233.739 
	356.174,267.13 478.609,267.13 478.609,233.739 512,233.739 512,200.348 512,155.826 512,133.565 "/>
<polygon style="fill:#E6E6E6;" points="478.609,356.174 478.609,322.783 445.217,322.783 445.21,289.391 389.565,289.391 
	389.557,233.739 356.166,233.739 356.166,200.348 322.783,200.348 322.783,166.957 189.217,166.957 189.217,200.348 
	155.826,200.348 155.826,233.739 122.435,233.739 122.435,289.391 66.775,289.391 66.775,322.783 33.391,322.783 33.391,356.174 
	33.384,356.174 33.384,356.174 0,356.174 0,389.565 0,389.569 0,445.217 33.391,445.217 33.391,478.609 66.783,478.609 66.783,512 
	356.174,512 445.21,512 445.217,512 445.217,478.609 478.609,478.609 478.609,445.217 512,445.217 512,389.565 512,356.174 "/>
<rect id="SVGCleanerId_0" x="155.826" y="200.348" width="33.391" height="33.391"/>
<rect id="SVGCleanerId_1" x="322.783" y="322.783" width="33.391" height="33.391"/>
<rect x="33.391" y="445.217" width="33.391" height="33.391"/>
<rect id="SVGCleanerId_2" x="189.217" y="166.957" width="133.565" height="33.391"/>
<polygon points="122.435,322.783 155.826,322.783 155.826,356.174 189.217,356.174 189.217,322.783 155.826,322.783 
	155.826,289.391 155.826,233.739 122.435,233.739 122.435,289.391 66.783,289.391 66.783,322.783 "/>
<polygon points="33.391,356.174 66.783,356.174 66.783,322.783 33.391,322.783 33.391,356.174 0,356.174 0,445.217 33.391,445.217 
	"/>
<polygon points="389.565,289.391 389.565,233.739 356.174,233.739 356.174,200.348 322.783,200.348 322.783,233.739 
	356.174,233.739 356.174,289.391 356.174,322.783 356.174,322.783 445.217,322.783 445.217,289.391 "/>
<rect x="445.217" y="445.217" width="33.391" height="33.391"/>
<rect id="SVGCleanerId_3" x="445.217" y="322.783" width="33.391" height="33.391"/>
<rect x="478.609" y="356.174" width="33.391" height="89.043"/>
<rect id="SVGCleanerId_4" x="66.783" y="478.609" width="378.435" height="33.391"/>
<g>
	<rect id="SVGCleanerId_0_1_" x="155.826" y="200.348" width="33.391" height="33.391"/>
</g>
<rect x="33.391" y="322.783" width="33.391" height="33.391"/>
<polygon points="155.826,356.174 189.217,356.174 189.217,322.783 155.826,322.783 155.826,322.783 "/>
<polygon points="33.391,445.217 33.391,356.174 0,356.174 0,445.219 33.391,445.219 33.391,478.609 66.783,478.609 66.783,445.217 
	"/>
<g>
	<rect id="SVGCleanerId_2_1_" x="189.217" y="166.957" width="133.565" height="33.391"/>
</g>
<polygon points="122.435,322.783 155.826,322.783 155.826,322.783 155.826,322.783 155.826,289.391 155.826,289.391 
	155.826,233.739 122.435,233.739 122.435,289.391 66.783,289.391 66.783,322.783 "/>
<polygon points="478.609,445.217 445.217,445.217 445.217,478.609 478.609,478.609 478.609,445.219 512,445.219 512,356.175 
	478.609,356.175 "/>
<g>
	<rect id="SVGCleanerId_4_1_" x="66.783" y="478.609" width="378.435" height="33.391"/>
</g>
<polygon points="356.174,233.739 356.174,289.391 356.174,322.783 356.174,322.783 445.217,322.783 445.217,289.391 
	389.565,289.391 389.565,233.739 356.174,233.739 356.174,200.348 322.783,200.348 322.783,233.739 "/>
<g>
	<rect id="SVGCleanerId_3_1_" x="445.217" y="322.783" width="33.391" height="33.391"/>
</g>
<g>
	<rect id="SVGCleanerId_1_1_" x="322.783" y="322.783" width="33.391" height="33.391"/>
</g>
<rect x="222.609" y="100.174" width="33.391" height="33.391"/>
<polygon points="189.217,100.174 222.609,100.174 222.609,100.174 222.609,100.174 222.609,66.783 222.609,66.783 222.609,33.391 
	189.217,33.391 189.217,66.783 155.826,66.783 155.826,100.174 "/>
<polygon points="122.435,133.565 155.826,133.565 155.826,100.174 122.435,100.174 122.435,133.565 89.043,133.565 89.043,200.348 
	122.435,200.348 "/>
<polygon points="478.609,133.565 478.609,100.174 445.217,100.174 445.217,66.783 411.826,66.783 411.826,33.391 378.435,33.391 
	378.435,0 222.609,0 222.609,33.391 378.435,33.391 378.435,66.783 378.435,100.174 378.435,100.174 445.217,100.174 
	445.217,133.565 478.609,133.565 478.609,233.739 512,233.739 512,133.565 "/>
<rect x="445.217" y="233.739" width="33.391" height="33.391"/>
<rect x="345.043" y="100.174" width="33.391" height="33.391"/>
<g>
</g>
<g>
</g>
<g>
</g>
<g>
</g>
<g>
</g>
<g>
</g>
<g>
</g>
<g>
</g>
<g>
</g>
<g>
</g>
<g>
</g>
<g>
</g>
<g>
</g>
<g>
</g>
<g>
</g>
</svg>
