<?xml version="1.0" encoding="iso-8859-1"?>
<!-- Generator: Adobe Illustrator 19.0.0, SVG Export Plug-In . SVG Version: 6.00 Build 0)  -->
<svg version="1.1" id="Layer_1" xmlns="http://www.w3.org/2000/svg" xmlns:xlink="http://www.w3.org/1999/xlink" x="0px" y="0px"
	 viewBox="0 0 512 512" style="enable-background:new 0 0 512 512;" xml:space="preserve">
<polygon style="fill:#E6E6E6;" points="222.609,322.783 222.609,289.391 189.217,289.391 189.217,256 66.783,256 66.783,289.391 
	33.391,289.391 33.391,322.783 0,322.783 0,445.217 33.391,445.217 33.391,478.609 66.783,478.609 66.783,512 189.217,512 
	189.217,478.609 222.609,478.609 222.609,445.217 256,445.217 256,322.783 256,322.783 "/>
<rect id="SVGCleanerId_0" x="378.435" style="fill:#57A4FF;" width="33.391" height="33.391"/>
<rect id="SVGCleanerId_1" x="345.043" y="33.391" style="fill:#57A4FF;" width="33.391" height="33.391"/>
<rect id="SVGCleanerId_2" x="311.652" y="66.783" style="fill:#57A4FF;" width="33.391" height="33.391"/>
<rect id="SVGCleanerId_3" x="278.261" y="100.174" style="fill:#57A4FF;" width="33.391" height="33.391"/>
<rect id="SVGCleanerId_4" x="478.609" y="44.522" style="fill:#57A4FF;" width="33.391" height="33.391"/>
<rect id="SVGCleanerId_5" x="445.217" y="77.913" style="fill:#57A4FF;" width="33.391" height="33.391"/>
<rect id="SVGCleanerId_6" x="411.826" y="111.304" style="fill:#57A4FF;" width="33.391" height="33.391"/>
<rect id="SVGCleanerId_7" x="378.435" y="144.696" style="fill:#57A4FF;" width="33.391" height="33.391"/>
<rect id="SVGCleanerId_8" x="345.043" y="178.087" style="fill:#57A4FF;" width="33.391" height="33.391"/>
<rect id="SVGCleanerId_9" x="311.652" y="211.478" style="fill:#57A4FF;" width="33.391" height="33.391"/>
<g>
	<polygon style="fill:#E6E6E6;" points="400.696,311.652 400.696,278.261 322.783,278.261 322.783,311.652 289.391,311.652 
		289.391,389.565 322.783,389.565 322.783,422.957 322.783,422.957 400.696,422.957 400.696,422.957 400.696,389.565 
		434.087,389.565 434.087,311.652 434.087,311.652 	"/>
	<polygon style="fill:#E6E6E6;" points="200.348,111.304 200.348,77.913 122.435,77.913 122.435,111.304 89.043,111.304 
		89.043,189.217 122.435,189.217 122.435,222.609 122.435,222.609 200.348,222.609 200.348,222.609 200.348,189.217 
		233.739,189.217 233.739,111.304 233.739,111.304 	"/>
</g>
<rect x="33.391" y="289.391" width="33.391" height="33.391"/>
<rect x="189.217" y="289.391" width="33.391" height="33.391"/>
<rect x="33.391" y="445.217" width="33.391" height="33.391"/>
<rect x="189.217" y="445.217" width="33.391" height="33.391"/>
<rect y="322.783" width="33.391" height="122.435"/>
<rect x="66.783" y="256" width="122.435" height="33.391"/>
<rect x="66.783" y="478.609" width="122.435" height="33.391"/>
<rect x="222.609" y="322.783" width="33.391" height="122.435"/>
<g>
	<rect id="SVGCleanerId_0_1_" x="378.435" style="fill:#57A4FF;" width="33.391" height="33.391"/>
</g>
<g>
	<rect id="SVGCleanerId_1_1_" x="345.043" y="33.391" style="fill:#57A4FF;" width="33.391" height="33.391"/>
</g>
<g>
	<rect id="SVGCleanerId_2_1_" x="311.652" y="66.783" style="fill:#57A4FF;" width="33.391" height="33.391"/>
</g>
<g>
	<rect id="SVGCleanerId_3_1_" x="278.261" y="100.174" style="fill:#57A4FF;" width="33.391" height="33.391"/>
</g>
<g>
	<rect id="SVGCleanerId_4_1_" x="478.609" y="44.522" style="fill:#57A4FF;" width="33.391" height="33.391"/>
</g>
<g>
	<rect id="SVGCleanerId_5_1_" x="445.217" y="77.913" style="fill:#57A4FF;" width="33.391" height="33.391"/>
</g>
<g>
	<rect id="SVGCleanerId_6_1_" x="411.826" y="111.304" style="fill:#57A4FF;" width="33.391" height="33.391"/>
</g>
<g>
	<rect id="SVGCleanerId_7_1_" x="378.435" y="144.696" style="fill:#57A4FF;" width="33.391" height="33.391"/>
</g>
<g>
	<rect id="SVGCleanerId_8_1_" x="345.043" y="178.087" style="fill:#57A4FF;" width="33.391" height="33.391"/>
</g>
<g>
	<rect id="SVGCleanerId_9_1_" x="311.652" y="211.478" style="fill:#57A4FF;" width="33.391" height="33.391"/>
</g>
<rect x="289.391" y="311.652" width="33.391" height="77.913"/>
<rect x="322.783" y="278.261" width="77.913" height="33.391"/>
<rect x="322.783" y="389.565" width="77.913" height="33.391"/>
<rect x="400.696" y="311.652" width="33.391" height="77.913"/>
<rect x="89.043" y="111.304" width="33.391" height="77.913"/>
<rect x="122.435" y="77.913" width="77.913" height="33.391"/>
<rect x="122.435" y="189.217" width="77.913" height="33.391"/>
<rect x="200.348" y="111.304" width="33.391" height="77.913"/>
<g>
</g>
<g>
</g>
<g>
</g>
<g>
</g>
<g>
</g>
<g>
</g>
<g>
</g>
<g>
</g>
<g>
</g>
<g>
</g>
<g>
</g>
<g>
</g>
<g>
</g>
<g>
</g>
<g>
</g>
</svg>
